<svg id="Capa_1" enable-background="new 0 0 513.263 513.263" height="512" viewBox="0 0 513.263 513.263" width="512" xmlns="http://www.w3.org/2000/svg"><path d="m486.567 209.159c-.01-.091-.029-.181-.041-.271-.038-.277-.084-.551-.144-.82-.023-.101-.051-.2-.077-.3-.067-.259-.141-.513-.227-.763-.035-.101-.072-.201-.11-.301-.095-.249-.199-.491-.313-.73-.028-.059-.048-.121-.077-.179l-60-120.13c-1.693-3.39-5.157-5.532-8.946-5.532h-96.556c1.645-3.468 3.002-7.094 4.064-10.845h7.421c19.103 0 34.644-15.541 34.644-34.644s-15.542-34.644-34.645-34.644h-134.843c-5.523 0-10 4.477-10 10v40.222c0 10.696 2.419 20.834 6.724 29.911h-96.809c-3.789 0-7.253 2.142-8.946 5.532l-60 120.13c-.029.058-.049.12-.077.179-.114.239-.218.481-.313.73-.038.1-.075.2-.11.301-.086.25-.161.505-.227.763-.026.1-.054.199-.077.3-.06.269-.106.543-.144.82-.013.091-.031.18-.041.271-.04.363-.064.731-.064 1.104v10c0 15.823 7.922 29.822 20 38.266v244.734c0 5.523 4.477 10 10 10h400c5.523 0 10-4.477 10-10v-244.734c12.078-8.444 20-22.443 20-38.266v-10c-.001-.373-.026-.741-.066-1.104zm-140.363-174.514c0 8.075-6.569 14.644-14.644 14.644h-4.761v-29.289h4.761c8.075 0 14.644 6.569 14.644 14.645zm-139.487-14.645h100.083v30.222c0 27.593-22.448 50.041-50.041 50.041s-50.042-22.448-50.042-50.041zm-103.902 80.133h104.867c10.366 10.194 23.877 17.192 38.93 19.386v20.744h-49.98c-5.523 0-10 4.477-10 10s4.477 10 10 10h120c5.523 0 10-4.477 10-10s-4.477-10-10-10h-50.02v-20.707c15.17-2.146 28.789-9.164 39.221-19.423h104.615l50.011 100.13h-407.655zm-56.183 120.13h53.33c0 14.706-11.959 26.67-26.66 26.67-14.707 0-26.67-11.964-26.67-26.67zm346.666 0c0 14.704-11.962 26.667-26.667 26.667s-26.667-11.962-26.667-26.667zm-73.333 0c0 14.704-11.963 26.667-26.667 26.667s-26.667-11.962-26.667-26.667zm-73.333 0c0 14.704-11.962 26.667-26.667 26.667s-26.667-11.962-26.667-26.667zm-73.334 0c0 14.704-11.962 26.667-26.667 26.667s-26.667-11.962-26.667-26.667zm-106.666 220h19.833v53h-19.833zm160 0h20v53h-20zm40 0h20v53h-20zm40 0h20v53h-20zm40 0h20v53h-20zm40 0h20v53h-20zm20-100h-80c-5.523 0-10 4.477-10 10s4.477 10 10 10h80v60h-180v-60h20c5.523 0 10-4.477 10-10s-4.477-10-10-10h-20v-18.167c0-1.011.822-1.833 1.833-1.833h176.333c1.011 0 1.833.822 1.833 1.833v18.167zm-200 153h-19.833v-53h19.833zm-39.834 0h-60.333v-61.225c.104-.577.167-1.168.167-1.775s-.063-1.198-.167-1.775v-58.058c0-16.634 13.533-30.167 30.167-30.167s30.167 13.533 30.167 30.167v122.833zm259.834 0v-53h20v53zm20-73h-20v-98.167c0-12.039-9.794-21.833-21.833-21.833h-176.334c-12.039 0-21.833 9.794-21.833 21.833v98.167h-19.833v-49.833c0-27.662-22.504-50.167-50.167-50.167s-50.167 22.504-50.167 50.167v49.833h-19.833v-153.814c2.18.313 4.405.484 6.67.484 14.862 0 28.112-6.994 36.663-17.855 8.552 10.859 21.804 17.851 36.667 17.851s28.114-6.993 36.667-17.851c8.552 10.859 21.804 17.851 36.667 17.851s28.114-6.993 36.667-17.851c8.552 10.859 21.804 17.851 36.667 17.851s28.115-6.993 36.667-17.851c8.552 10.859 21.804 17.851 36.667 17.851s28.115-6.993 36.667-17.851c8.551 10.861 21.802 17.855 36.663 17.855 2.265 0 4.49-.171 6.67-.484v153.814zm-6.67-173.33c-14.701 0-26.66-11.964-26.66-26.67h53.33c0 14.706-11.964 26.67-26.67 26.67z"/><circle cx="286.632" cy="350.099" r="9.998"/></svg>